<?xml version="1.0"?>
<svg width="496.158" height="496.158" xmlns="http://www.w3.org/2000/svg" xmlns:svg="http://www.w3.org/2000/svg" version="1.1" xml:space="preserve">
 <g class="layer">
  <title>Layer 1</title>
  <path d="m496.16,248.09c0,-137.03 -111.07,-248.09 -248.08,-248.09c-137.01,0 -248.08,111.06 -248.08,248.09c0,137 111.07,248.06 248.08,248.06c137.01,0 248.08,-111.06 248.08,-248.06z" fill="#000000" id="svg_1" transform="matrix(1 0 0 1 0 0)"/>
  <g id="svg_2" transform="matrix(1 0 0 1 0 0)">
   <path d="m73.41,251.07c0,3.32 -2.68,6 -6,6l-10.66,0c-3.32,0 -6,-2.68 -6,-6l0,-6.5c0,-3.31 2.68,-6 6,-6l10.66,0c3.32,0 6,2.69 6,6l0,6.5z" fill="#b7f7cc" id="svg_3"/>
   <path d="m104.41,266.82c0,3.32 -2.68,6 -6,6l-10.66,0c-3.32,0 -6,-2.68 -6,-6l0,-37.5c0,-3.31 2.68,-6 6,-6l10.66,0c3.32,0 6,2.69 6,6l0,37.5z" fill="#b7f7cc" id="svg_4"/>
  </g>
  <g id="svg_5" transform="matrix(1 0 0 1 0 0)">
   <path d="m135.41,274.58c0,3.31 -2.68,6 -6,6l-10.66,0c-3.32,0 -6,-2.69 -6,-6l0,-53c0,-3.31 2.68,-6 6,-6l10.66,0c3.32,0 6,2.69 6,6l0,53z" fill="#66ff99" id="svg_6"/>
   <path d="m166.41,290.08c0,3.31 -2.68,6 -6,6l-10.66,0c-3.32,0 -6,-2.69 -6,-6l0,-84c0,-3.31 2.68,-6 6,-6l10.66,0c3.32,0 6,2.69 6,6l0,84z" fill="#66ff99" id="svg_7"/>
  </g>
  <g id="svg_8" transform="matrix(1 0 0 1 0 0)">
   <path d="m197.41,321.08c0,3.31 -2.68,6 -6,6l-10.66,0c-3.32,0 -6,-2.69 -6,-6l0,-146c0,-3.31 2.68,-6 6,-6l10.66,0c3.32,0 6,2.69 6,6l0,146z" fill="#2bff75" id="svg_9"/>
   <path d="m228.41,336.58c0,3.31 -2.68,6 -6,6l-10.66,0c-3.32,0 -6,-2.69 -6,-6l0,-177c0,-3.31 2.68,-6 6,-6l10.66,0c3.32,0 6,2.69 6,6l0,177z" fill="#2bff75" id="svg_10"/>
  </g>
  <path d="m259.41,383.08c0,3.31 -2.68,6 -6,6l-10.66,0c-3.32,0 -6,-2.69 -6,-6l0,-270c0,-3.31 2.68,-6 6,-6l10.66,0c3.32,0 6,2.69 6,6l0,270z" fill="#0dff64" id="svg_11" transform="matrix(1 0 0 1 0 0)"/>
  <g id="svg_12" transform="matrix(1 0 0 1 0 0)">
   <path d="m290.41,321.08c0,3.31 -2.68,6 -6,6l-10.66,0c-3.32,0 -6,-2.69 -6,-6l0,-146c0,-3.31 2.68,-6 6,-6l10.66,0c3.32,0 6,2.69 6,6l0,146z" fill="#2bff75" id="svg_13"/>
   <path d="m321.41,290.08c0,3.31 -2.68,6 -6,6l-10.66,0c-3.32,0 -6,-2.69 -6,-6l0,-84c0,-3.31 2.68,-6 6,-6l10.66,0c3.32,0 6,2.69 6,6l0,84z" fill="#2bff75" id="svg_14"/>
  </g>
  <g id="svg_15" transform="matrix(1 0 0 1 0 0)">
   <path d="m352.41,305.58c0,3.31 -2.68,6 -6,6l-10.66,0c-3.32,0 -6,-2.69 -6,-6l0,-115c0,-3.31 2.68,-6 6,-6l10.66,0c3.32,0 6,2.69 6,6l0,115z" fill="#2bff75" id="svg_16"/>
   <path d="m383.41,274.57c0,3.32 -2.68,6 -6,6l-10.66,0c-3.32,0 -6,-2.68 -6,-6l0,-53c0,-3.31 2.68,-6 6,-6l10.66,0c3.32,0 6,2.69 6,6l0,53z" fill="#2bff75" id="svg_17"/>
  </g>
  <g id="svg_18">
   <path d="m445.41,251.26c0,3.31 -2.68,6 -6,6l-10.66,0c-3.32,0 -6,-2.69 -6,-6l0,-6.5c0,-3.31 2.68,-6 6,-6l10.66,0c3.32,0 6,2.69 6,6l0,6.5z" fill="#b7f7cc" id="svg_19"/>
   <path d="m414.41,259.08c0,3.31 -2.68,6 -6,6l-10.66,0c-3.32,0 -6,-2.69 -6,-6l0,-22c0,-3.31 2.68,-6 6,-6l10.66,0c3.32,0 6,2.69 6,6l0,22z" fill="#b7f7cc" id="svg_20"/>
  </g>
 </g>
</svg>